<?xml version="1.0" encoding="UTF-8" standalone="no"?>
<svg
   xmlns:dc="http://purl.org/dc/elements/1.1/"
   xmlns:cc="http://creativecommons.org/ns#"
   xmlns:rdf="http://www.w3.org/1999/02/22-rdf-syntax-ns#"
   xmlns:svg="http://www.w3.org/2000/svg"
   xmlns="http://www.w3.org/2000/svg"
   xmlns:sodipodi="http://sodipodi.sourceforge.net/DTD/sodipodi-0.dtd"
   xmlns:inkscape="http://www.inkscape.org/namespaces/inkscape"
   width="32"
   height="32"
   viewBox="227 24 225 160.71429"
   version="1.1"
   id="svg2"
   inkscape:version="0.92.1 r15371"
   sodipodi:docname="main.svg">
  <metadata
     id="metadata15">
    <rdf:RDF>
      <cc:Work
         rdf:about="">
        <dc:format>image/svg+xml</dc:format>
        <dc:type
           rdf:resource="http://purl.org/dc/dcmitype/StillImage" />
        <dc:title></dc:title>
      </cc:Work>
    </rdf:RDF>
  </metadata>
  <defs
     id="defs13" />
  <sodipodi:namedview
     pagecolor="#ffffff"
     bordercolor="#666666"
     borderopacity="1"
     objecttolerance="10"
     gridtolerance="10"
     guidetolerance="10"
     inkscape:pageopacity="0"
     inkscape:pageshadow="2"
     inkscape:window-width="1137"
     inkscape:window-height="592"
     id="namedview11"
     showgrid="false"
     inkscape:zoom="5.3033009"
     inkscape:cx="19.8874"
     inkscape:cy="14.814216"
     inkscape:window-x="0"
     inkscape:window-y="27"
     inkscape:window-maximized="0"
     inkscape:current-layer="svg2"
     fit-margin-top="0"
     fit-margin-left="0"
     fit-margin-right="0"
     fit-margin-bottom="0" />
  <path
     inkscape:connector-curvature="0"
     id="path3419"
     d="m 325.34303,207.93924 c 0,-0.24982 0.18919,-0.3349 0.42044,-0.18914 0.23123,0.14575 0.42041,0.35014 0.42041,0.45412 0,0.10404 -0.18918,0.18916 -0.42041,0.18916 -0.23125,0 -0.42044,-0.2044 -0.42044,-0.45414 z m -19.54595,-14.54955 c -0.14551,-0.24018 0.0317,-2.05006 0.39406,-4.02193 1.83343,-9.98062 5.08957,-14.98252 13.49821,-20.73535 4.04307,-2.76611 5.99517,-4.72744 7.28303,-7.31769 0.99077,-1.99272 1.98284,-6.42506 1.53376,-6.85243 -0.18438,-0.17544 -0.4077,-0.1144 -0.49626,0.13553 -0.0887,0.24989 -1.25545,2.18072 -2.59314,4.29063 -4.60373,7.26166 -7.15149,8.52226 -18.51979,9.16304 -10.1041,0.56955 -13.67073,1.95515 -17.75714,6.89859 -0.97161,1.17536 -1.94978,2.137 -2.17372,2.137 -0.74287,0 0.0799,-2.72237 2.07381,-6.86169 1.49851,-3.1108 2.61766,-4.73967 4.73331,-6.88908 3.27754,-3.3299 4.9479,-4.20653 11.38948,-5.9772 4.90136,-1.34721 7.4244,-2.63348 9.15302,-4.66616 1.0863,-1.27734 3.03928,-4.91813 3.03928,-5.66587 0,-0.27377 -1.41298,0.87143 -3.13991,2.54475 -5.05341,4.89645 -8.76634,6.29927 -13.83324,5.22626 -1.33906,-0.28358 -4.92608,-1.28302 -7.97115,-2.22106 -8.3497,-2.57208 -12.53853,-2.33663 -17.62166,0.9906 -1.11702,0.73113 -2.15736,1.20043 -2.31184,1.04282 -1.14009,-1.16294 6.3724,-9.4443 10.24684,-11.29547 2.42845,-1.16037 2.60165,-1.17951 10.66679,-1.17951 7.66574,0 8.3117,-0.0616 9.94439,-0.95249 2.02867,-1.10658 3.87607,-3.25682 5.47557,-6.37307 l 1.13318,-2.20774 -2.16995,-2.54482 c -6.22073,-7.29555 -10.05091,-17.48275 -10.81456,-28.76347 -0.48477,-7.161229 0.92604,-18.743759 3.69654,-30.3482 0.73206,-3.066296 1.33608,-5.715512 1.34228,-5.887148 0.006,-0.171624 -1.78343,-1.233042 -3.97694,-2.358678 -4.41593,-2.266138 -5.61199,-3.58046 -6.06546,-6.664993 -0.53594,-3.645585 2.44452,-10.454872 7.63833,-17.450868 3.34417,-4.504522 12.13375,-13.610175 17.0135,-17.625293 5.08193,-4.181475 8.89133,-6.788595 14.83147,-10.150571 9.47329,-5.3616183 13.65008,-5.3616183 23.12332,0 8.85899,5.013948 15.11212,9.808037 22.66298,17.375031 10.25041,10.27235 16.75068,20.611796 16.77357,26.680555 0.0156,4.138076 -1.20066,5.591084 -7.05346,8.426292 -2.49173,1.207081 -3.14908,1.709392 -2.93966,2.246519 0.14834,0.38048 0.91602,3.490089 1.70592,6.910172 4.0631,17.592171 4.3841,31.267012 0.98748,42.067982 -1.35493,4.30865 -4.36661,10.18695 -6.90042,13.4686 -4.05638,5.25359 -3.82074,4.58758 -2.4994,7.06396 1.60734,3.01245 3.64533,5.33073 5.52263,6.28215 1.3927,0.70582 2.60991,0.80608 9.78875,0.80608 8.08596,0 8.23244,0.0162 10.6937,1.19207 1.74293,0.83259 3.52209,2.25519 5.89974,4.71738 4.56807,4.73058 6.06473,8.31275 2.38688,5.71291 -4.72978,-3.34344 -9.68592,-3.70803 -17.54596,-1.29061 -7.55778,2.32444 -10.16964,2.84533 -12.78581,2.55018 -3.30101,-0.37253 -5.44058,-1.58572 -9.25958,-5.25043 -1.84424,-1.76966 -3.35314,-2.99694 -3.35314,-2.72717 0,0.71174 1.61279,3.87715 2.79501,5.48581 1.51213,2.05759 4.0123,3.34549 9.3793,4.8315 6.07751,1.6827 9.11487,3.33101 12.00391,6.51414 3.21734,3.54473 7.76014,13.21583 6.20791,13.21583 -0.22548,0 -1.36574,-1.12094 -2.53393,-2.49097 -2.1726,-2.54799 -5.49605,-4.6949 -8.72292,-5.63497 -0.92492,-0.26953 -4.82698,-0.67307 -8.67126,-0.89683 -9.34571,-0.54394 -11.83109,-1.30833 -15.06632,-4.6336 -1.29797,-1.3341 -3.28825,-4.05032 -4.42283,-6.03596 -2.21713,-3.88025 -2.73596,-3.90311 -1.90423,-0.0839 1.10212,5.06103 2.86584,7.31801 9.22154,11.80056 5.34684,3.77107 7.91075,6.53928 9.91131,10.70104 2.20917,4.59579 4.05314,12.95964 2.99196,13.57095 -0.20471,0.11799 -1.05607,-1.08475 -1.89191,-2.67273 -2.95472,-5.61356 -6.29387,-8.57037 -12.86904,-11.39525 -13.37923,-5.74829 -15.5687,-7.97711 -18.61959,-18.95377 -0.68836,-2.47663 -1.69999,-6.48039 -2.24807,-8.89722 -0.54807,-2.41684 -1.10033,-4.39487 -1.22724,-4.39569 -0.1269,0 -0.66657,1.96969 -1.19924,4.37889 -4.14228,18.73607 -6.23185,21.6927 -19.17079,27.12555 -2.0811,0.87379 -4.80952,2.18437 -6.06315,2.91242 -3.24567,1.88475 -6.71939,5.61495 -8.40967,9.03048 -1.53134,3.09437 -1.91854,3.56983 -2.34038,2.87358 z m 24.66072,-88.88084 c 13.20025,-6.654678 14.27841,-25.205227 1.93947,-33.370519 -7.175,-4.748111 -17.26403,-3.684025 -23.26806,2.454064 -9.84235,10.062058 -6.1297,27.121795 6.91336,31.767055 2.33848,0.83285 3.4627,0.97105 7.02643,0.86359 3.91797,-0.11813 4.48322,-0.24933 7.3888,-1.71419 z m -10.9026,-4.901975 c -2.58023,-0.93146 -6.09342,-4.371344 -7.25395,-7.102737 -1.27903,-3.01023 -1.32533,-7.443887 -0.10701,-10.246323 1.16957,-2.690429 3.61858,-5.354815 6.18514,-6.72932 1.81951,-0.974378 2.64797,-1.140005 5.7024,-1.140005 3.05444,0 3.88287,0.165627 5.70241,1.140005 2.55782,1.369793 5.00627,4.028183 6.19784,6.72932 1.23914,2.808929 1.19296,7.226518 -0.10702,10.246323 -1.21994,2.833826 -4.71348,6.182047 -7.43869,7.129187 -2.44205,0.848805 -6.48986,0.836725 -8.88104,-0.0268 z m 12.27436,-14.539647 c 1.89933,-1.937399 -0.98142,-6.316054 -4.5433,-6.905641 -1.11231,-0.184126 -1.63423,-0.02597 -2.36011,0.714249 -1.31674,1.343115 -0.87493,3.215537 1.24045,5.257081 1.34963,1.302468 1.9835,1.608176 3.33436,1.608176 0.95576,0 1.95006,-0.287706 2.3286,-0.673865 z m 37.55924,20.465562 c 9.53317,-3.02655 15.22879,-13.882416 12.35209,-23.543214 -1.05683,-3.549208 -3.53951,-7.517858 -5.92745,-9.475373 -6.37406,-5.225041 -15.52267,-5.790049 -22.22324,-1.372473 -13.29099,8.762671 -10.7319,29.10016 4.33019,34.41296 2.87704,1.01477 8.23523,1.00455 11.46841,-0.022 z m -11.99544,-5.925915 c -2.56758,-0.92683 -6.0902,-4.370045 -7.2666,-7.102737 -1.30007,-3.019805 -1.34623,-7.437394 -0.10702,-10.246323 1.19157,-2.701137 3.64002,-5.359527 6.19784,-6.72932 1.81953,-0.974378 2.64797,-1.140005 5.70241,-1.140005 3.05443,0 3.88286,0.165627 5.7024,1.140005 2.56655,1.374505 5.01557,4.038891 6.18513,6.72932 1.3138,3.022167 1.19771,7.421173 -0.27699,10.495813 -1.39924,2.917289 -4.61517,5.961847 -7.27343,6.885777 -2.4265,0.843375 -6.47853,0.828455 -8.86368,-0.0325 z m 12.27437,-14.539647 c 1.93546,-1.974301 -0.91365,-6.304863 -4.54329,-6.905641 -1.11234,-0.184126 -1.63426,-0.02597 -2.36015,0.714249 -1.31673,1.343115 -0.87491,3.215537 1.24047,5.257081 1.34964,1.302468 1.98348,1.608176 3.33437,1.608176 0.95575,0 1.95004,-0.287706 2.3286,-0.673865 z"
     style="fill:#ffffff;stroke-width:0.86420095"
     inkscape:export-xdpi="12.53"
     inkscape:export-ydpi="12.53" />
  <path
     inkscape:connector-curvature="0"
     id="path3417"
     d="m 306.42691,190.94292 c 0.006,-1.52002 1.65532,-7.77312 2.64982,-10.04495 2.06818,-4.72459 4.81413,-7.64131 11.76715,-12.49899 2.15374,-1.50477 4.3818,-3.47436 5.18854,-4.5867 1.73848,-2.39714 3.19349,-6.98692 3.01583,-9.51319 l -0.13161,-1.87122 -2.68863,4.46343 c -1.47872,2.45478 -3.34011,5.1989 -4.13639,6.09793 -2.80209,3.16379 -7.6217,4.61462 -15.45745,4.65298 -7.58423,0.0373 -12.38468,1.7266 -16.62255,5.84984 -3.16648,3.08089 -3.30251,2.30165 -0.57012,-3.266 2.34652,-4.78136 5.92651,-8.72704 9.44736,-10.41244 1.28967,-0.61732 4.03295,-1.54563 6.09613,-2.06288 4.87938,-1.2233 7.78844,-2.62699 9.4537,-4.56164 1.59402,-1.8519 3.32683,-5.47558 3.3326,-6.9693 0.006,-0.92507 -0.44204,-0.60176 -3.46167,2.51166 -5.76012,5.93904 -9.15087,7.00558 -16.08392,5.05924 -2.0811,-0.58423 -5.10817,-1.4702 -6.72678,-1.96879 -6.5773,-2.02604 -11.10724,-1.90731 -15.28459,0.4006 -2.9054,1.60517 -3.18776,1.59771 -2.34614,-0.0623 1.16572,-2.29947 6.12857,-6.99356 8.81799,-8.34056 l 2.50637,-1.25527 h 8.19827 c 7.12495,0 8.40249,-0.10362 9.75815,-0.79122 2.0821,-1.05622 4.70226,-4.0212 6.07322,-6.87263 l 1.11667,-2.32251 -2.82969,-3.58386 c -3.59938,-4.55872 -7.02907,-11.57321 -8.44539,-17.27275 -2.69781,-10.85653 -2.02367,-23.778588 2.14378,-41.091149 0.79795,-3.314984 1.39943,-6.064864 1.3366,-6.111023 -0.0628,-0.04615 -1.74381,-0.87931 -3.73553,-1.851574 -6.02148,-2.939436 -7.38078,-5.455644 -5.89659,-10.915411 2.55013,-9.380887 15.65241,-24.858782 29.48803,-34.834522 4.20863,-3.03451 13.03947,-7.8998342 16.10517,-8.87312 3.03645,-0.9640005 5.73708,-0.9952787 8.72865,-0.1011197 2.86344,0.8558695 10.88501,5.1791967 15.31667,8.2551117 15.00472,10.414426 29.10743,27.311875 30.82099,36.928795 0.82562,4.633658 -0.58494,6.799381 -6.22619,9.559568 -1.96548,0.961639 -3.62502,1.786209 -3.68784,1.832272 -0.0628,0.04614 0.53866,2.796039 1.33661,6.111023 3.04315,12.642 4.34642,24.326575 3.60628,32.332479 -0.91396,9.8861 -4.40763,19.06519 -9.9079,26.03142 l -2.82968,3.58386 1.11668,2.32251 c 1.37097,2.85143 3.99111,5.81641 6.07319,6.87263 1.35569,0.68764 2.63321,0.79123 9.75818,0.79123 8.08306,0 8.23076,0.0162 10.5106,1.17035 1.27177,0.64368 3.17676,1.93146 4.23331,2.86179 2.22464,1.95898 5.67774,6.37162 5.2931,6.76394 -0.14415,0.14707 -1.37424,-0.33725 -2.73352,-1.07631 -2.93663,-1.59659 -6.86967,-2.27768 -10.12303,-1.75312 -1.25194,0.20188 -4.94053,1.19038 -8.19685,2.19663 -10.40408,3.21505 -13.56795,2.57013 -20.00695,-4.07781 -1.79655,-1.85485 -3.36935,-3.20265 -3.49511,-2.99509 -0.33961,0.56055 1.5578,5.06103 2.87817,6.82689 1.78563,2.38804 4.38952,3.80382 9.30834,5.06103 2.46587,0.6303 5.53987,1.65165 6.83109,2.2698 3.52385,1.68675 7.10282,5.63067 9.45018,10.41374 2.73234,5.56764 2.59633,6.34687 -0.57013,3.26597 -4.23785,-4.12322 -9.03833,-5.81267 -16.62258,-5.84982 -11.05865,-0.0543 -14.66624,-2.03968 -19.62251,-10.79967 -1.18099,-2.0873 -2.30991,-3.89767 -2.50871,-4.02299 -0.64757,-0.40823 -0.38071,3.5429 0.41557,6.1527 1.09871,3.60096 3.00769,6.19359 6.27605,8.52372 10.40187,7.41581 12.78264,10.49761 14.8261,19.19157 1.33483,5.67909 1.02018,6.28142 -1.19226,2.28261 -0.69048,-1.24806 -2.42851,-3.37695 -3.86227,-4.73101 -2.7773,-2.62278 -4.96332,-3.88623 -12.11716,-7.00305 -10.81503,-4.71201 -12.39563,-7.02852 -16.44588,-24.10305 -0.91512,-3.85776 -1.78028,-7.1329 -1.92256,-7.27811 -0.45042,-0.45939 -0.8985,0.72351 -1.64537,4.34348 -1.10305,5.34646 -3.8919,15.05973 -4.91562,17.12058 -2.25438,4.53827 -5.00388,6.76719 -12.23351,9.9171 -7.15384,3.11682 -9.33986,4.38027 -12.11715,7.00305 -1.43376,1.35406 -3.17178,3.48295 -3.86226,4.73101 -1.39814,2.52697 -2.01745,3.13392 -2.01305,1.97275 z m 22.17499,-85.1174 c 1.44552,-0.47101 3.72743,-1.68174 5.0709,-2.69059 11.82382,-8.878736 10.07592,-27.174283 -3.21106,-33.610771 -7.47691,-3.621977 -16.92252,-1.720597 -22.41276,4.511745 -5.79093,6.573586 -6.65066,16.392633 -2.0725,23.67016 4.91751,7.816916 13.78573,10.999346 22.62542,8.119456 z m -6.89816,-5.945375 c -3.75381,-0.76747 -7.07344,-3.443694 -9.02667,-7.277375 -1.46917,-2.88355 -1.40717,-7.962914 0.13381,-10.963017 1.18372,-2.304505 3.58916,-4.7812 5.88536,-6.059655 1.0653,-0.593165 2.32784,-0.774777 5.38553,-0.774777 3.59446,0 4.18966,0.117298 5.94945,1.17261 7.29768,4.375975 8.83469,13.582156 3.29911,19.760477 -3.09865,3.458377 -7.42698,5.000272 -11.62659,4.141737 z m 10.12582,-14.384094 c 0.36339,-0.370671 0.66069,-1.248696 0.66069,-1.951187 0,-2.968947 -2.67246,-5.523109 -5.77898,-5.523109 -1.95966,0 -2.76964,0.763973 -2.76964,2.612396 0,3.506959 5.74487,7.047988 7.88793,4.8619 z m 37.02032,20.743129 c 4.18062,-1.07065 8.60699,-4.45052 11.17531,-8.533116 4.87819,-7.754458 3.5228,-18.482256 -3.12482,-24.732698 -4.12697,-3.880406 -8.42646,-5.432517 -14.32011,-5.169555 -3.34681,0.149324 -4.25417,0.370657 -7.02959,1.715153 -11.26517,5.457096 -14.63463,19.580012 -7.10002,29.759661 4.6407,6.269815 12.55358,8.969825 20.39923,6.960555 z m -9.30798,-6.359035 c -2.71961,-0.55601 -4.90074,-1.891819 -7.02591,-4.302901 -5.4762,-6.213041 -3.51129,-15.972707 4.0184,-19.959111 2.0502,-1.085417 6.89667,-1.296388 9.50211,-0.413666 2.7104,0.918326 5.69945,3.601046 7.14153,6.409658 0.9504,1.850923 1.12814,2.737707 1.12814,5.627986 0,2.882901 -0.17754,3.773249 -1.11171,5.575112 -2.74018,5.285224 -8.29396,8.158377 -13.65256,7.062922 z m 10.12583,-14.384094 c 1.65891,-1.692205 0.41118,-5.410287 -2.29456,-6.837514 -1.45311,-0.766487 -4.24939,-0.835512 -4.94874,-0.122134 -0.82548,0.84202 -0.60054,3.533652 0.40415,4.83652 1.95634,2.536974 5.38882,3.602524 6.83915,2.123156 z"
     style="fill:#ffffff;fill-opacity:1;stroke-width:0.86420095"
     inkscape:export-xdpi="12.53"
     inkscape:export-ydpi="12.53" />
  <path
     inkscape:connector-curvature="0"
     id="path3415"
     d="m 306.84439,189.83681 c 0,-1.70249 1.69069,-7.29075 3.07625,-10.16798 1.66846,-3.46471 4.81158,-6.73733 9.76429,-10.16684 4.32186,-2.99273 7.06481,-5.81551 8.18327,-8.42167 0.93783,-2.18527 1.81689,-6.61502 1.59495,-8.03712 -0.14329,-0.91804 -0.36394,-0.71664 -1.82623,1.66713 -7.03769,11.47198 -8.22445,12.22185 -20.4599,12.92726 -3.99829,0.2305 -8.02638,0.63947 -8.95132,0.90868 -2.94315,0.85684 -5.76874,2.56657 -8.2807,5.01059 -3.09874,3.01495 -3.22096,2.20645 -0.5035,-3.33081 1.3676,-2.7867 2.69549,-4.73114 4.51955,-6.61801 2.96373,-3.0658 5.47001,-4.39821 10.99144,-5.84311 6.60399,-1.72814 8.95291,-3.14188 10.92569,-6.5756 1.23885,-2.1564 2.34743,-5.23533 2.00919,-5.58038 -0.13441,-0.13705 -1.89226,1.37117 -3.90633,3.35171 -4.02429,3.9572 -5.23564,4.74536 -8.33565,5.42352 -2.60438,0.56971 -5.10667,0.13664 -12.71211,-2.20069 -3.10123,-0.95304 -6.78478,-1.84306 -8.18566,-1.97788 -2.92272,-0.28121 -6.47078,0.58361 -9.32993,2.27411 -1.19643,0.70743 -1.78239,0.87339 -1.77342,0.50231 0.0395,-1.636 5.89257,-7.37632 9.21896,-9.04137 l 2.74976,-1.37643 7.69162,0.11868 c 6.78958,0.10486 7.90243,0.0235 9.48891,-0.69219 2.07272,-0.93521 4.43011,-3.26511 5.91005,-5.84108 1.87922,-3.27093 1.83695,-3.70283 -0.66591,-6.80661 -5.40323,-6.70028 -8.71112,-14.66911 -9.99362,-24.07496 -1.14826,-8.421116 9.2e-4,-20.152569 3.39542,-34.655247 0.70527,-3.013407 1.19063,-5.715179 1.07856,-6.003935 -0.11211,-0.288756 -1.31288,-0.962703 -2.66847,-1.497703 -3.10982,-1.227363 -6.35804,-3.641527 -6.93564,-5.154883 -0.24413,-0.639559 -0.35099,-2.395663 -0.23745,-3.902374 0.43535,-5.777802 6.54998,-15.449233 15.6304,-24.722373 8.2928,-8.46886 14.73398,-13.32748 24.44941,-18.44235 5.20847,-2.7420936 5.7139,-2.9181614 8.92074,-3.107534 4.62619,-0.2731698 6.41772,0.2745804 13.4263,4.105009 15.01974,8.208839 30.0006,22.970913 36.17375,35.645499 1.83161,3.760594 1.96445,4.258854 1.96445,7.368466 0,3.083483 -0.0906,3.431606 -1.20039,4.614275 -1.10426,1.176824 -4.64807,3.20563 -7.57006,4.333877 -1.41242,0.545389 -1.45891,-0.09726 0.69934,9.669889 2.36663,10.710114 2.99385,15.765549 3.0062,24.230291 0.007,5.689963 -0.17357,8.365303 -0.752,11.062713 -1.82346,8.50335 -4.82009,14.90668 -9.80656,20.95531 -2.01525,2.44449 -2.13893,2.9842 -1.14393,4.99192 1.50605,3.03879 4.0273,5.85365 6.22577,6.95082 2.14346,1.06978 2.37103,1.09208 9.94126,0.97462 l 7.74757,-0.1202 2.74773,1.37537 c 1.69012,0.84607 3.66495,2.33161 5.13075,3.85973 4.45483,4.64413 5.36488,6.48264 2.31679,4.68038 -2.85913,-1.69051 -6.4072,-2.55531 -9.32992,-2.2741 -1.40086,0.13485 -5.03845,1.01073 -8.0835,1.94656 -7.96618,2.44815 -9.74894,2.76846 -12.50964,2.2479 -3.31408,-0.62487 -4.51323,-1.38115 -8.6677,-5.46642 -2.02916,-1.99531 -3.78842,-3.46446 -3.90943,-3.26477 -0.33253,0.54888 1.58258,5.06835 2.88681,6.81263 1.78563,2.38803 4.38952,3.80381 9.30834,5.06103 2.46587,0.63029 5.53986,1.65162 6.83109,2.26978 3.52385,1.68676 7.10282,5.63067 9.45018,10.41373 2.73234,5.56766 2.59633,6.3469 -0.57013,3.266 -4.23785,-4.12324 -9.03833,-5.81267 -16.62258,-5.84983 -11.09636,-0.0543 -14.54613,-1.9645 -19.68818,-10.90107 -2.3767,-4.1306 -3.22871,-4.91284 -3.21868,-2.95524 0.009,1.73096 1.13546,6.38248 1.92132,7.93266 1.14727,2.26307 3.99091,5.05243 7.93482,7.78343 5.01353,3.4716 8.09516,6.70271 9.78984,10.26474 1.56485,3.28909 3.17591,8.89617 2.96018,10.30254 -0.12434,0.81036 -0.29697,0.66373 -1.13709,-0.96602 -0.54476,-1.05679 -2.14684,-3.1002 -3.56017,-4.54097 -2.6202,-2.67103 -3.67827,-3.28008 -15.41922,-8.87558 -4.48907,-2.13943 -6.69257,-3.89425 -8.46688,-6.74291 -1.47593,-2.36955 -3.58038,-8.96577 -5.44022,-17.05198 -1.83451,-7.97598 -2.28781,-8.07566 -3.90114,-0.85766 -1.61584,7.22904 -3.87612,14.71274 -5.18607,17.17063 -1.61764,3.03522 -4.27386,5.27298 -8.84774,7.45388 -11.82362,5.63764 -12.8535,6.23014 -15.47613,8.90362 -1.4133,1.44077 -2.97798,3.43592 -3.47705,4.43382 -1.02828,2.05597 -1.3107,2.23711 -1.3107,0.8407 z m 20.37586,-83.31043 c 12.4377,-3.30449 18.39152,-18.119036 11.85462,-29.497019 -1.47231,-2.562672 -5.65042,-6.419135 -8.35299,-7.709928 -11.91658,-5.691665 -25.48192,1.653989 -27.72799,15.014798 -1.61188,9.588125 4.80113,19.517309 14.3611,22.235049 2.64652,0.75232 6.94242,0.73366 9.86526,-0.043 z m -5.51651,-6.646235 c -3.75381,-0.76747 -7.07344,-3.443694 -9.02667,-7.277375 -1.46917,-2.88355 -1.40717,-7.962914 0.13381,-10.963017 1.18372,-2.304505 3.58916,-4.7812 5.88536,-6.059655 1.0653,-0.593165 2.32784,-0.774777 5.38553,-0.774777 3.59446,0 4.18966,0.117298 5.94945,1.17261 7.29768,4.375975 8.83469,13.582156 3.29911,19.760477 -3.09865,3.458377 -7.42698,5.000272 -11.62659,4.141737 z m 10.12582,-14.384094 c 0.36339,-0.370671 0.66069,-1.248696 0.66069,-1.951187 0,-2.968961 -2.67246,-5.523109 -5.77898,-5.523109 -1.95966,0 -2.76964,0.763973 -2.76964,2.612396 0,3.506959 5.74487,7.047988 7.88793,4.8619 z m 36.60692,21.103909 c 9.71527,-2.65117 16.13251,-12.44653 14.55155,-22.211626 -1.8553,-11.45958 -12.34354,-18.950925 -23.25465,-16.61 -3.41282,0.732265 -6.42651,2.36542 -9.20262,4.987142 -4.2326,3.997208 -6.26864,8.696962 -6.26864,14.469672 0,9.008417 5.9164,16.959722 14.33841,19.270002 2.88455,0.79122 7.13381,0.83217 9.83595,0.0948 z m -8.89458,-6.719815 c -2.71961,-0.55601 -4.90074,-1.891819 -7.02591,-4.302901 -5.4762,-6.213041 -3.51129,-15.972707 4.0184,-19.959111 2.0502,-1.085417 6.89667,-1.296388 9.50211,-0.413666 2.7104,0.918326 5.69945,3.601046 7.14153,6.409658 0.9504,1.850923 1.12814,2.737707 1.12814,5.627986 0,2.882901 -0.17754,3.773249 -1.11171,5.575112 -2.74018,5.285224 -8.29396,8.158377 -13.65256,7.062922 z m 10.12583,-14.384094 c 1.65891,-1.692205 0.41118,-5.410301 -2.29456,-6.837514 -1.45311,-0.766487 -4.24939,-0.835512 -4.94874,-0.122134 -0.82548,0.84202 -0.60054,3.533652 0.40415,4.83652 1.95634,2.536974 5.38882,3.602524 6.83915,2.123156 z"
     style="fill:#ffffff;fill-opacity:0;stroke-width:0.86420095"
     inkscape:export-xdpi="12.53"
     inkscape:export-ydpi="12.53" />
  <path
     inkscape:connector-curvature="0"
     id="path3405"
     d="m 289.607,171.92094 c 0,-0.91784 2.74165,-5.30183 4.64203,-7.42289 2.61755,-2.92142 5.04917,-4.22518 10.91366,-5.85178 5.53589,-1.53542 8.40602,-2.98671 10.1489,-5.13183 1.55732,-1.91672 3.30435,-5.64188 3.59845,-7.67288 0.27733,-1.91525 1.77979,-4.34255 2.69039,-4.34653 0.36951,0 1.97763,0.54264 3.5736,1.20936 2.86672,1.19759 2.90518,1.23514 3.18591,3.10918 0.63764,4.25659 0.49154,4.85342 -2.4073,9.83495 -3.21259,5.52062 -4.70213,7.36578 -7.07872,8.76868 -2.6123,1.54198 -4.61867,1.9323 -12.11054,2.35607 -8.00559,0.45285 -11.14339,1.27312 -14.76251,3.85915 -1.31663,0.9408 -2.39387,1.52057 -2.39387,1.28852 z m 104.75616,-1.08395 c -3.3012,-2.59926 -8.48305,-4.01951 -14.78543,-4.05243 -7.7392,-0.0406 -12.43521,-1.47799 -15.26477,-4.67276 -0.80628,-0.91038 -2.73206,-3.83093 -4.27951,-6.49013 l -2.81355,-4.83488 0.29474,-3.3965 0.29477,-3.3965 1.73994,-0.75806 c 4.58814,-1.99895 4.80508,-2.02831 5.99713,-0.8124 0.65497,0.66812 1.232,1.89735 1.45039,3.08973 0.46414,2.5343 2.09656,6.03608 3.78016,8.10892 1.7335,2.13443 4.36361,3.44387 10.12927,5.04296 5.79735,1.60793 8.23549,2.91915 10.84637,5.83311 2.01687,2.25107 4.80057,6.78601 4.56027,7.42915 -0.0707,0.18913 -0.94805,-0.3015 -1.94978,-1.09021 z M 320.71565,99.089235 c -8.98582,-3.005453 -11.49663,-14.466732 -4.56239,-20.826265 4.9398,-4.530328 12.01762,-4.278724 16.47835,0.585773 2.5738,2.806747 3.34054,4.723615 3.3574,8.393368 0.0221,4.815353 -2.35523,8.803221 -6.55802,11.000652 -1.92197,1.004882 -6.81942,1.480602 -8.71534,0.846472 z m 11.74409,-13.620429 c 1.13611,-1.47329 1.09908,-2.472329 -0.17377,-4.687845 -1.9445,-3.384659 -6.73322,-4.648594 -8.40235,-2.21781 -2.02987,2.956154 1.70314,8.035684 5.90553,8.035684 1.44297,0 1.97175,-0.223792 2.67059,-1.130029 z m 25.5494,13.402399 c -2.53191,-0.962445 -4.78948,-2.772336 -6.14194,-4.923869 -7.43834,-11.833415 7.50133,-25.110512 17.82481,-15.841151 6.51093,5.846018 5.25283,15.918203 -2.51679,20.149233 -2.14034,1.165467 -6.88203,1.484077 -9.16608,0.615787 z m 12.28875,-13.402399 c 1.13614,-1.47329 1.0991,-2.472329 -0.17376,-4.687845 -1.94452,-3.384659 -6.73323,-4.648594 -8.40234,-2.21781 -2.02988,2.956154 1.70313,8.035684 5.90551,8.035684 1.44299,0 1.97175,-0.223792 2.67059,-1.130029 z"
     style="fill:#ffffff;fill-opacity:1;stroke-width:0.86420095"
     inkscape:export-xdpi="12.53"
     inkscape:export-ydpi="12.53" />
  <path
     inkscape:connector-curvature="0"
     id="path3403"
     d="m 320.0405,98.488205 c -3.33005,-1.335474 -5.81416,-3.95656 -6.9632,-7.347202 -1.42333,-4.200055 -0.632,-8.262944 2.26271,-11.617497 7.14423,-8.279013 20.51364,-3.068561 20.51364,7.994802 0,3.954032 -2.94652,8.664176 -6.53464,10.446006 -2.01095,0.998551 -7.34391,1.299701 -9.27851,0.523891 z m 12.32812,-12.425433 c 1.39863,-1.55877 1.53946,-2.722952 0.57521,-4.75477 -1.5674,-3.302716 -5.10648,-5.109856 -7.77763,-3.971399 -2.62928,1.120621 -2.95869,4.083903 -0.75141,6.759743 2.45681,2.978287 6.21268,3.906836 7.95383,1.966426 z m 25.53761,12.425433 c -5.07729,-2.079897 -8.15696,-6.966472 -7.63593,-12.115995 1.07569,-10.631445 13.52413,-14.806756 20.3976,-6.841492 5.04327,5.844332 3.22581,15.079443 -3.63996,18.496141 -1.88276,0.936896 -7.29283,1.210566 -9.12171,0.461346 z m 12.59501,-12.78005 c 1.31679,-1.596239 1.3431,-2.161578 0.21149,-4.546064 -2.80366,-5.907734 -11.22883,-5.323495 -9.64694,0.669001 0.40381,1.529742 2.27776,3.726772 4.00731,4.698235 0.46246,0.259714 1.62809,0.478146 2.59029,0.485275 1.4456,0.0097 1.93844,-0.216083 2.83785,-1.306447 z"
     style="fill:#ffffff;stroke-width:0.86420095"
     inkscape:export-xdpi="12.53"
     inkscape:export-ydpi="12.53" />
</svg>
